<?xml version="1.0" standalone="no"?>
<!DOCTYPE svg PUBLIC "-//W3C//DTD SVG 20010904//EN"
 "http://www.w3.org/TR/2001/REC-SVG-20010904/DTD/svg10.dtd">
<svg version="1.0" xmlns="http://www.w3.org/2000/svg"
 width="900.000000pt" height="900.000000pt" viewBox="0 0 900.000000 900.000000"
 preserveAspectRatio="xMidYMid meet">

<g transform="translate(0.000000,900.000000) scale(0.100000,-0.100000)"
fill="#000000" stroke="none">
<path d="M4300 7254 c-269 -33 -396 -59 -570 -115 -581 -188 -1071 -548 -1387
-1019 -215 -321 -383 -763 -429 -1128 -22 -176 -29 -437 -15 -590 12 -133 59
-384 86 -462 8 -23 12 -53 9 -65 -3 -13 -1 -32 5 -42 8 -14 11 -15 11 -3 0 8
9 -10 20 -40 11 -30 17 -64 15 -75 -3 -11 -2 -14 1 -6 4 9 13 -3 25 -34 10
-26 15 -53 12 -58 -3 -6 -1 -7 5 -3 7 4 12 6 13 4 0 -2 3 -25 6 -51 5 -43 3
-49 -16 -54 -28 -7 -27 -33 2 -32 18 0 19 2 5 7 -17 7 -16 8 2 20 18 11 21 8
35 -25 8 -20 25 -43 36 -51 11 -8 18 -20 15 -29 -3 -8 -2 -11 3 -8 5 3 13 -5
17 -17 3 -13 15 -35 26 -50 19 -28 19 -28 -1 -28 -12 0 -21 -7 -21 -15 0 -8 9
-15 20 -15 11 0 20 -7 20 -15 0 -8 8 -15 18 -15 9 0 23 -10 31 -22 13 -22 13
-23 -6 -6 -27 25 -47 24 -33 -2 6 -10 9 -25 8 -32 -2 -7 2 -12 8 -11 5 1 15
-6 21 -15 9 -15 6 -17 -28 -14 -36 4 -39 6 -39 35 0 38 -13 27 -14 -12 -1 -28
1 -30 49 -33 56 -5 78 0 69 13 -3 5 -3 9 0 9 3 0 10 -9 16 -20 6 -11 7 -20 3
-19 -22 4 -25 -2 -7 -16 14 -11 49 -14 134 -15 l115 0 64 -79 c80 -101 261
-277 372 -363 330 -257 767 -438 1187 -493 133 -18 496 -20 622 -5 118 15 375
73 511 116 395 125 780 374 1043 674 127 144 138 156 130 140 -6 -12 -4 -13 7
-2 8 8 46 12 111 12 l98 0 15 33 c38 78 76 129 93 122 12 -4 13 -3 3 9 -9 11
-10 20 -1 35 6 12 13 21 16 21 3 0 2 -5 -2 -12 -4 -7 -3 -8 5 -4 6 4 9 12 5
17 -3 6 2 19 12 30 9 10 14 19 10 19 -4 0 3 18 15 40 12 21 27 36 32 33 6 -4
7 -1 2 6 -9 16 34 113 48 104 5 -3 6 4 2 17 -5 17 -4 21 5 15 9 -5 11 -4 6 4
-4 7 1 31 12 54 34 73 109 308 136 425 83 360 87 778 10 1121 -154 691 -562
1281 -1154 1671 -303 199 -692 341 -1085 395 -115 16 -542 29 -625 19z m585
-129 c373 -52 682 -160 995 -348 302 -182 640 -516 822 -813 87 -143 214 -411
261 -549 80 -236 98 -333 104 -544 4 -119 2 -182 -4 -178 -6 4 -13 39 -17 79
-4 40 -10 76 -15 81 -5 5 -28 7 -52 5 l-44 -3 0 -66 c0 -51 4 -72 19 -88 26
-29 14 -51 -29 -51 -39 0 -55 20 -39 49 5 9 7 48 4 86 l-5 70 -96 3 c-86 2
-96 5 -92 20 3 14 17 17 96 17 l92 0 3 88 c2 77 5 88 20 85 14 -3 18 -18 22
-88 l5 -85 48 -3 47 -3 0 43 c0 119 -99 519 -143 576 -6 7 -36 12 -82 12 -73
0 -135 14 -135 31 0 5 45 9 100 9 l100 0 -51 103 c-28 56 -69 132 -91 170
l-39 67 -234 0 c-137 0 -235 -4 -235 -9 0 -5 -14 -23 -31 -40 -87 -87 -228 15
-175 126 19 41 74 68 120 59 33 -7 86 -52 86 -73 0 -10 45 -13 221 -13 173 0
219 3 213 13 -23 40 -118 165 -184 242 -361 421 -817 701 -1341 824 -84 20
-357 61 -404 61 -14 0 -25 -5 -25 -11 0 -6 9 -8 20 -4 13 4 20 2 20 -7 0 -10
2 -10 9 1 5 8 14 10 21 6 9 -6 5 -12 -15 -23 -22 -11 -25 -16 -14 -23 8 -5 12
-9 9 -10 -3 0 -14 -3 -25 -5 -11 -3 -25 -6 -32 -6 -7 -1 -15 -8 -18 -15 -3
-10 -12 -12 -26 -8 -17 6 -21 4 -16 -8 5 -12 -1 -15 -26 -14 -50 1 -117 -14
-117 -28 0 -9 -47 -13 -194 -14 -106 -1 -205 1 -220 5 -29 7 -35 24 -8 24 14
0 15 2 2 10 -9 5 -17 5 -20 0 -7 -12 -60 -6 -88 9 -12 6 -30 11 -41 11 -12 0
-21 7 -21 15 0 11 7 14 25 9 15 -4 25 -2 25 4 0 6 8 13 18 15 13 4 11 5 -5 6
-13 0 -23 -3 -23 -8 0 -5 -8 -7 -18 -5 -20 6 -197 -49 -326 -100 -182 -73
-417 -208 -591 -339 -221 -168 -555 -548 -539 -613 4 -16 0 -26 -16 -34 -12
-6 -39 -39 -62 -73 -38 -59 -148 -273 -148 -289 0 -4 143 -6 317 -5 l317 2 8
31 c11 43 49 75 97 81 36 5 44 2 76 -30 28 -28 35 -43 35 -74 0 -87 -95 -132
-171 -80 -35 24 -38 24 -250 23 l-214 -1 -3 -50 c-2 -27 -1 -65 3 -82 l6 -33
75 0 c54 0 80 4 90 15 20 19 39 19 58 -1 23 -22 20 -43 -8 -55 -17 -8 -29 -8
-44 0 -11 6 -43 11 -69 11 -27 0 -53 4 -59 10 -5 5 -25 6 -49 0 -33 -7 -58
-27 -141 -114 -113 -118 -113 -117 -115 -291 0 -44 -3 -74 -6 -67 -2 6 -9 10
-14 6 -5 -3 -9 31 -9 79 0 46 -3 105 -6 131 l-7 46 124 125 c67 69 129 125
136 125 11 0 13 17 11 73 l-3 72 -105 0 -104 0 -33 -105 c-50 -158 -90 -333
-103 -450 -15 -134 -18 -150 -30 -150 -19 0 -4 220 24 354 82 392 285 808 535
1099 236 274 503 478 836 638 240 115 401 167 649 209 242 41 563 47 791 15z
m-624 -410 c39 -21 69 -71 69 -115 0 -44 -31 -96 -70 -118 l-30 -17 0 -162 0
-162 160 -163 159 -163 159 155 159 155 1 170 2 170 -30 17 c-16 9 -39 32 -50
50 -70 114 63 248 177 178 72 -44 90 -137 40 -203 l-27 -36 0 -188 0 -188
-187 -188 -188 -187 -4 -646 -3 -645 -25 16 c-14 10 -36 15 -48 12 -17 -3 -25
1 -29 17 -3 12 -6 297 -6 635 l0 615 -185 186 -185 186 0 190 c0 177 -1 192
-20 209 -48 44 -49 143 -2 191 47 46 108 57 163 29z m316 -200 c21 -15 21 -21
22 -268 2 -275 0 -286 -53 -290 -53 -4 -57 18 -54 297 2 235 4 249 22 262 26
18 36 18 63 -1z m-650 -61 c72 -54 81 -98 82 -395 1 -204 2 -206 94 -216 50
-5 60 -11 103 -54 l48 -49 -114 0 c-101 0 -120 3 -155 23 -78 44 -81 55 -89
324 -6 224 -8 239 -28 256 -12 10 -37 17 -62 17 -77 0 -112 54 -65 101 18 18
30 21 90 17 49 -3 76 -9 96 -24z m1313 -31 c0 -30 -6 -53 -17 -66 -16 -17 -19
-49 -23 -271 -6 -278 -7 -284 -75 -326 -30 -18 -47 -20 -159 -18 l-126 3 58
46 c45 36 68 47 107 52 37 5 56 14 73 33 23 27 23 28 20 258 -3 260 0 273 71
315 58 33 71 29 71 -26z m-1499 -348 c40 -21 69 -71 69 -119 0 -31 -7 -45 -39
-77 -31 -31 -46 -39 -75 -39 -79 0 -126 46 -126 125 0 59 19 91 64 111 41 18
71 17 107 -1z m1750 -21 c75 -72 32 -200 -71 -210 -54 -6 -86 9 -117 55 -81
119 84 255 188 155z m-2418 -55 c18 -20 27 -40 27 -64 0 -73 -43 -115 -116
-115 -30 0 -44 7 -75 40 l-38 40 -165 0 -165 0 -36 -31 c-19 -17 -35 -26 -35
-21 0 6 16 23 35 38 19 14 35 32 35 39 0 20 35 25 192 25 l147 0 16 31 c34 64
126 74 178 18z m-575 -227 c3 -11 -37 -70 -48 -71 -3 -1 -6 18 -7 42 -3 40 -2
43 24 41 15 0 29 -6 31 -12z m1445 -259 c144 -148 296 -303 339 -347 69 -69
78 -82 78 -115 0 -21 -6 -51 -14 -67 -14 -29 -30 -184 -29 -278 0 -44 -1 -47
-13 -31 -13 17 -14 17 -14 2 0 -11 -8 -17 -24 -17 -30 0 -44 19 -25 31 11 7 5
18 -28 47 -53 47 -76 94 -68 134 4 17 30 53 61 84 30 29 54 61 54 70 0 10 -87
106 -193 213 -335 341 -447 463 -447 486 0 18 35 55 51 55 7 0 129 -120 272
-267z m1517 247 c11 -11 20 -27 20 -35 0 -16 -100 -124 -448 -484 l-203 -210
18 -28 c10 -15 33 -41 52 -58 74 -65 72 -135 -6 -211 -35 -35 -52 -44 -79 -44
-30 0 -34 3 -35 28 -2 109 -18 242 -33 264 -13 19 -15 36 -10 69 7 40 22 58
189 224 100 99 252 253 337 343 85 89 160 162 166 162 7 0 21 -9 32 -20z
m-3000 -84 c0 -8 -4 -18 -10 -21 -5 -3 -10 3 -10 14 0 12 5 21 10 21 6 0 10
-6 10 -14z m3783 -36 c15 -17 27 -39 27 -49 0 -25 33 -30 212 -32 120 -1 146
-4 141 -15 -3 -8 -16 -14 -29 -14 -13 0 -24 -4 -24 -8 0 -5 45 -52 99 -106
239 -235 284 -290 252 -310 -5 -3 -40 27 -77 67 -38 39 -130 134 -204 209
l-134 138 -119 0 c-112 0 -121 -1 -149 -25 -41 -35 -105 -35 -147 1 -27 22
-31 32 -31 72 1 52 13 74 56 97 42 23 93 13 127 -25z m-1949 -10 c30 -11 56
-57 56 -100 0 -117 -149 -158 -210 -58 -31 51 -26 94 14 134 27 27 42 34 74
34 23 0 52 -4 66 -10z m644 -15 c53 -44 51 -109 -6 -167 -20 -22 -35 -28 -70
-28 -54 0 -77 12 -97 50 -25 49 -20 107 14 141 40 40 115 42 159 4z m-1467 -5
c15 -9 19 -22 19 -64 0 -52 1 -55 31 -65 18 -6 45 -11 61 -11 16 0 45 -7 64
-15 46 -19 312 -279 330 -323 11 -25 14 -89 13 -285 0 -138 -4 -261 -8 -272
-7 -17 -13 -11 -47 39 l-39 59 -5 212 -5 213 -49 53 c-71 79 -115 117 -166
143 -25 13 -56 36 -69 50 -15 16 -35 26 -51 26 -36 0 -104 24 -140 50 -90 64
-33 240 61 190z m2234 -14 c13 -13 27 -36 31 -51 9 -34 -15 -93 -46 -116 -24
-18 -149 -44 -159 -33 -3 3 14 23 37 45 41 39 42 43 40 96 -2 44 1 58 17 69
28 20 53 17 80 -10z m-202 -192 c8 -47 -6 -67 -68 -100 -55 -30 -199 -164
-221 -206 -11 -21 -14 -74 -14 -223 0 -212 -3 -228 -64 -300 l-25 -30 -1 300
0 300 132 130 c98 96 145 134 178 147 68 25 77 23 83 -18z m-2420 -54 c41 -45
38 -101 -7 -146 -38 -38 -77 -44 -125 -19 -36 18 -64 76 -56 114 6 28 46 73
75 84 32 13 85 -2 113 -33z m3065 20 c27 -17 50 -20 141 -20 84 0 111 -3 121
-15 11 -13 -1 -15 -99 -15 l-111 0 0 -26 c0 -66 -58 -124 -125 -124 -39 0 -95
59 -95 99 0 65 50 120 110 121 14 0 40 -9 58 -20z m-3698 -255 c0 -189 -8
-245 -24 -179 -9 36 5 384 16 384 4 0 8 -92 8 -205z m4230 109 c0 -9 4 -13 9
-9 19 11 20 -13 1 -30 -19 -17 -21 -17 -40 0 -24 21 -26 37 -5 29 22 -9 9 23
-24 60 l-26 30 43 -33 c23 -18 42 -39 42 -47z m-3023 -42 c33 -21 48 -80 33
-126 -39 -118 -210 -86 -210 38 0 95 94 142 177 88z m1936 -12 c48 -53 30
-139 -38 -176 -44 -23 -96 -12 -129 27 -47 56 -27 152 38 180 38 16 99 1 129
-31z m1092 -97 c4 -49 11 -93 17 -100 16 -20 -1 -53 -27 -53 -26 0 -39 24 -26
49 5 9 11 56 12 104 2 48 6 87 10 87 4 0 10 -39 14 -87z m-3998 -29 c-3 -3
-12 -4 -19 -1 -8 3 -5 6 6 6 11 1 17 -2 13 -5z m-52 -24 c-3 -4 -14 -10 -25
-13 -16 -4 -19 -2 -11 7 11 13 43 18 36 6z m143 -12 c-3 -7 -21 -14 -41 -16
-28 -2 -37 1 -37 12 0 12 11 16 41 16 28 0 39 -4 37 -12z m3473 -37 c16 -16
29 -39 29 -50 0 -21 4 -21 184 -21 159 0 185 -2 190 -16 3 -9 4 -20 0 -25 -3
-5 -88 -9 -189 -9 -181 0 -184 0 -210 -24 -15 -14 -39 -28 -55 -31 -41 -9 -96
17 -115 55 -53 103 84 202 166 121z m439 -357 c0 -184 -3 -235 -12 -231 -20 6
-12 467 7 467 3 0 5 -106 5 -236z m-3847 156 c43 -48 32 -114 -25 -150 -41
-26 -87 -21 -129 14 -28 24 -38 26 -129 26 l-98 0 -4 -139 c-2 -77 -7 -143
-11 -147 -17 -17 -22 15 -25 147 l-4 140 -106 -3 -107 -3 -3 -47 c-2 -25 -9
-52 -17 -58 -11 -10 -15 -1 -21 49 l-7 61 -64 0 c-61 0 -64 1 -61 22 3 22 4
22 201 19 173 -2 197 0 197 13 0 9 5 16 10 16 6 0 10 -7 10 -15 0 -12 18 -15
105 -15 96 0 105 2 105 19 0 23 36 70 64 82 37 15 89 2 119 -31z m2051 -86
c24 -9 19 -22 -6 -19 -36 4 -38 4 -38 15 0 11 20 13 44 4z m-564 -106 c1 -35
3 -95 6 -134 l6 -72 -46 -31 -46 -32 0 166 0 165 40 0 40 0 0 -62z m520 -102
l0 -165 -45 26 -45 25 0 139 0 139 45 0 45 0 0 -164z m2100 30 c0 -89 -3 -115
-14 -119 -26 -10 -33 47 -20 172 5 41 11 61 20 61 11 0 14 -25 14 -114z
m-3522 -393 l3 -63 -171 0 -170 0 0 -100 0 -100 110 0 110 0 0 -60 0 -60 -110
0 -110 0 0 -90 0 -90 170 0 170 0 0 -65 0 -65 -227 2 -228 3 -3 365 c-1 201 0
370 2 376 3 8 69 11 228 10 l223 -1 3 -62z m2184 57 c5 0 6 -10 4 -22 -3 -13
-5 -40 -5 -60 l-1 -38 -167 -2 -168 -3 -3 -97 -3 -98 116 0 115 0 0 -60 0 -59
-112 -3 -113 -3 -3 -87 -3 -88 171 0 170 0 0 -65 0 -65 -227 2 -228 3 -3 375
-2 375 227 -2 c126 -2 231 -3 235 -3z m276 -17 c14 -22 150 -260 220 -388 9
-15 11 33 12 193 l0 212 65 0 65 0 -2 -372 c-3 -352 -4 -373 -21 -376 -36 -7
-67 8 -83 41 -28 56 -227 391 -241 407 -11 12 -13 -23 -13 -212 0 -125 -3
-229 -7 -231 -5 -2 -32 -2 -60 1 l-53 4 0 374 0 374 49 0 c43 0 52 -4 69 -27z
m-3110 1 c29 -20 52 -66 52 -104 l0 -30 -59 0 c-40 0 -62 5 -71 15 -11 13 -34
15 -119 13 l-106 -3 -3 -97 -3 -98 126 0 c137 0 166 -8 204 -56 19 -24 21 -40
21 -161 l0 -135 -34 -34 c-32 -32 -38 -34 -112 -36 -179 -5 -257 1 -284 20
-28 21 -57 90 -47 115 9 23 117 25 117 2 0 -13 20 -15 120 -15 l121 0 -3 88
-3 87 -142 5 -143 5 -32 33 -33 32 -3 135 c-4 149 8 193 57 220 39 22 348 21
379 -1z m1006 -157 c55 -94 110 -190 123 -212 l23 -40 0 213 0 212 60 0 60 0
2 -137 c2 -76 2 -244 1 -373 l-1 -235 -39 0 -38 0 -130 217 c-72 120 -136 223
-143 230 -9 9 -12 -36 -12 -215 l0 -227 -60 0 -60 0 0 370 0 370 58 0 57 0 99
-173z m916 113 l0 -60 -95 0 -95 0 0 -309 0 -309 -61 -4 c-33 -1 -63 -1 -65 1
-2 2 -4 143 -4 313 l0 308 -90 0 -90 0 0 60 0 60 250 0 250 0 0 -60z m280
-315 c0 -310 -2 -375 -14 -375 -7 0 -34 3 -60 6 l-46 7 0 368 0 369 60 0 60 0
0 -375z m1900 315 l0 -59 -97 -3 -98 -3 -3 -310 c-2 -170 -5 -311 -7 -313 -2
-2 -28 -1 -59 3 l-56 7 0 309 0 308 -87 3 -88 3 -3 34 c-2 19 -1 44 2 57 l6
24 245 0 245 0 0 -60z m-4730 -614 c0 -6 -7 -1 -15 10 -8 10 -15 23 -15 28 0
6 7 1 15 -10 8 -10 15 -23 15 -28z m14 -32 c3 -8 2 -12 -4 -9 -6 3 -10 10 -10
16 0 14 7 11 14 -7z m160 -292 c3 -5 -1 -9 -9 -9 -8 0 -15 4 -15 9 0 4 4 8 9
8 6 0 12 -4 15 -8z m1164 -164 c3 -15 -4 -18 -47 -18 -39 0 -51 -4 -51 -15 0
-10 11 -15 35 -15 28 0 35 -4 35 -20 0 -16 -7 -20 -35 -20 -24 0 -35 -5 -35
-14 0 -11 15 -16 52 -18 41 -2 54 -7 56 -20 3 -16 -6 -18 -77 -18 l-81 0 0 83
c0 46 3 87 7 91 4 4 37 6 72 4 53 -2 66 -6 69 -20z m129 -5 l23 -28 21 28 c11
15 29 27 40 27 24 0 24 -3 -7 -50 l-26 -39 31 -43 c36 -49 38 -58 12 -58 -11
0 -29 14 -41 30 -26 37 -37 38 -52 5 -8 -18 -19 -25 -40 -25 l-29 0 30 37 c37
45 38 50 6 93 -14 19 -25 38 -25 42 0 18 36 6 57 -19z m328 2 c14 -13 25 -33
25 -44 0 -30 -47 -61 -91 -61 -35 0 -39 -3 -39 -25 0 -18 -5 -25 -20 -25 -18
0 -20 7 -20 83 0 46 3 87 7 90 3 4 31 7 60 7 44 0 58 -5 78 -25z m243 3 c3
-15 -5 -18 -52 -18 -42 0 -56 -4 -56 -14 0 -10 13 -16 37 -18 27 -2 39 -8 41
-20 3 -15 -4 -18 -37 -18 -29 0 -41 -4 -41 -15 0 -10 15 -15 58 -17 49 -3 57
-6 57 -23 0 -18 -8 -20 -77 -23 l-78 -3 0 96 0 96 72 -3 c60 -2 73 -6 76 -20z
m217 -3 c30 -29 32 -56 5 -80 -18 -17 -19 -20 -5 -41 20 -31 19 -34 -10 -34
-17 0 -29 8 -37 25 -7 16 -19 25 -35 25 -18 0 -23 -5 -23 -25 0 -18 -5 -25
-20 -25 -18 0 -20 7 -20 83 0 46 3 87 7 90 3 4 31 7 60 7 44 0 58 -5 78 -25z
m123 -67 c-2 -75 -6 -93 -18 -93 -12 0 -16 17 -18 79 -3 89 0 106 23 106 13 0
15 -14 13 -92z m141 34 l34 -52 32 52 c46 78 59 71 63 -34 3 -82 1 -88 -17
-88 -16 0 -20 8 -23 43 l-3 42 -19 -37 c-11 -21 -25 -38 -32 -38 -7 0 -22 17
-35 38 l-23 37 -6 -45 c-3 -25 -8 -44 -12 -42 -5 1 -12 2 -18 2 -11 0 -14 163
-3 174 13 12 28 0 62 -52z m359 36 c3 -15 -5 -18 -53 -18 -48 0 -56 -3 -53
-17 2 -13 14 -19 41 -21 53 -5 51 -32 -3 -32 -29 0 -40 -4 -40 -15 0 -12 13
-15 60 -15 53 0 60 -2 60 -20 0 -18 -7 -20 -80 -20 l-80 0 0 90 0 91 72 -3
c60 -2 73 -6 76 -20z m154 -30 l47 -53 1 53 c0 45 3 53 18 50 14 -3 17 -17 20
-91 2 -65 0 -87 -10 -87 -7 0 -34 21 -60 47 l-48 47 0 -47 c0 -40 -3 -47 -20
-47 -19 0 -20 7 -20 90 0 65 3 90 13 90 6 0 33 -23 59 -52z m316 30 c2 -12 -5
-17 -30 -20 l-33 -3 -3 -67 c-2 -52 -6 -68 -17 -68 -12 0 -15 15 -15 70 l0 70
-35 0 c-22 0 -35 5 -35 13 0 24 13 28 89 25 62 -2 76 -6 79 -20z m150 -65 c41
-86 42 -88 21 -91 -13 -2 -26 3 -31 12 -12 21 -84 22 -92 1 -5 -14 -46 -22
-46 -9 0 21 81 174 93 174 7 0 32 -39 55 -87z m140 9 l3 -72 49 0 c44 0 50 -3
50 -20 0 -19 -5 -21 -72 -18 l-73 3 -3 79 c-3 92 0 105 25 102 15 -2 18 -14
21 -74z m-1944 -288 c9 -8 16 -20 16 -26 0 -24 -34 -48 -67 -48 -30 0 -33 -3
-33 -30 0 -23 -4 -30 -20 -30 -18 0 -20 7 -20 75 l0 75 54 0 c36 0 60 -5 70
-16z m192 -9 c14 -22 14 -26 -2 -54 -14 -24 -16 -33 -6 -43 18 -18 15 -28 -8
-28 -12 0 -25 10 -32 25 -6 14 -19 25 -30 25 -13 0 -18 -7 -18 -25 0 -16 -6
-25 -15 -25 -12 0 -15 15 -15 75 l0 75 55 0 c47 0 57 -3 71 -25z m193 -1 c27
-35 27 -75 -1 -101 -34 -30 -63 -36 -96 -19 -33 17 -42 34 -42 77 0 67 97 97
139 43z m191 12 c0 -9 -12 -16 -27 -18 -27 -3 -28 -6 -31 -60 -2 -42 -7 -58
-17 -58 -10 0 -15 16 -17 58 -3 54 -4 57 -30 60 -16 2 -28 9 -28 18 0 11 17
14 75 14 58 0 75 -3 75 -14z m158 -2 c16 -11 22 -25 22 -53 0 -54 -27 -85 -75
-85 -46 0 -75 31 -75 80 0 64 72 97 128 58z m182 2 c0 -9 -12 -16 -27 -18 -27
-3 -28 -6 -31 -60 -2 -43 -7 -58 -17 -58 -12 0 -15 14 -15 60 0 57 -1 60 -25
60 -16 0 -25 6 -25 15 0 12 14 15 70 15 54 0 70 -3 70 -14z m68 -13 l20 -28
13 28 c7 15 20 27 31 27 24 0 23 -7 -7 -55 -13 -22 -25 -52 -25 -67 0 -18 -5
-28 -15 -28 -10 0 -15 10 -15 32 0 17 -10 45 -23 62 -38 51 -40 56 -18 56 10
0 28 -12 39 -27z m246 11 c9 -8 16 -22 16 -30 0 -24 -38 -54 -70 -54 -25 0
-30 -4 -30 -25 0 -18 -5 -25 -20 -25 -18 0 -20 7 -20 75 l0 75 54 0 c36 0 60
-5 70 -16z m186 1 c0 -11 -12 -15 -45 -15 -33 0 -45 -4 -45 -15 0 -10 11 -15
35 -15 24 0 35 -5 35 -15 0 -10 -11 -15 -35 -15 -24 0 -35 -5 -35 -15 0 -11
12 -15 46 -15 38 0 45 -3 42 -17 -2 -14 -15 -19 -61 -21 l-57 -3 0 81 0 80 60
0 c47 0 60 -3 60 -15z"/>
<path d="M4493 7093 c9 -2 25 -2 35 0 9 3 1 5 -18 5 -19 0 -27 -2 -17 -5z"/>
<path d="M4588 7093 c12 -2 30 -2 40 0 9 3 -1 5 -23 4 -22 0 -30 -2 -17 -4z"/>
<path d="M4010 7040 c-23 -7 -23 -8 -3 -9 12 -1 25 4 28 9 3 6 5 10 3 9 -2 -1
-14 -5 -28 -9z"/>
<path d="M4398 6943 c7 -3 16 -2 19 1 4 3 -2 6 -13 5 -11 0 -14 -3 -6 -6z"/>
<path d="M6070 5949 c-13 -24 10 -69 36 -69 45 0 71 49 42 78 -20 20 -66 15
-78 -9z"/>
<path d="M2945 5596 c-19 -29 -11 -54 20 -62 53 -13 87 25 58 65 -19 28 -59
27 -78 -3z"/>
<path d="M4164 6619 c-20 -22 -13 -43 19 -63 38 -24 74 35 42 68 -22 21 -38
20 -61 -5z"/>
<path d="M4878 6629 c-21 -12 -24 -49 -6 -67 39 -39 100 17 63 58 -20 22 -32
24 -57 9z"/>
<path d="M3660 5985 c-23 -28 9 -72 45 -59 36 14 24 74 -15 74 -10 0 -23 -7
-30 -15z"/>
<path d="M5371 5982 c-14 -27 8 -55 40 -50 19 2 24 9 24 33 0 25 -4 31 -27 33
-18 2 -30 -3 -37 -16z"/>
<path d="M2948 5945 c-10 -22 -9 -29 10 -47 18 -18 26 -20 49 -12 53 18 38 84
-18 84 -22 0 -32 -7 -41 -25z"/>
<path d="M6136 5604 c-32 -32 -13 -74 34 -74 30 0 50 16 50 41 0 23 -27 49
-50 49 -10 0 -26 -7 -34 -16z"/>
<path d="M4211 5547 c-22 -27 10 -64 45 -50 23 9 14 57 -12 61 -11 2 -26 -3
-33 -11z"/>
<path d="M4837 5553 c-12 -12 -7 -40 9 -54 14 -11 19 -10 35 10 15 18 17 27 8
37 -12 15 -41 19 -52 7z"/>
<path d="M2972 5308 c-29 -29 7 -86 47 -73 26 8 38 50 21 70 -15 18 -51 20
-68 3z"/>
<path d="M6052 5308 c-36 -36 7 -91 54 -69 42 19 26 81 -21 81 -12 0 -26 -5
-33 -12z"/>
<path d="M3557 5107 c-3 -8 1 -23 8 -34 11 -14 18 -16 32 -7 28 17 23 48 -8
52 -16 2 -29 -3 -32 -11z"/>
<path d="M5492 5118 c-17 -17 -15 -47 4 -55 23 -9 51 23 38 44 -14 22 -27 26
-42 11z"/>
<path d="M6150 4932 c-46 -37 9 -106 59 -75 22 14 25 57 6 77 -21 21 -38 20
-65 -2z"/>
<path d="M2725 4730 c-15 -17 -16 -24 -7 -45 21 -45 92 -29 92 20 0 45 -53 61
-85 25z"/>
<path d="M3840 2965 c0 -24 3 -26 38 -23 29 2 37 7 37 23 0 16 -8 21 -37 23
-35 3 -38 1 -38 -23z"/>
<path d="M4300 2965 c0 -24 3 -26 38 -23 29 2 37 7 37 23 0 16 -8 21 -37 23
-35 3 -38 1 -38 -23z"/>
<path d="M5577 2939 c-3 -12 0 -22 9 -26 20 -8 27 2 19 26 -8 27 -21 27 -28 0z"/>
<path d="M3760 2635 c0 -9 9 -15 25 -15 16 0 25 6 25 15 0 9 -9 15 -25 15 -16
0 -25 -6 -25 -15z"/>
<path d="M3942 2633 c4 -20 36 -28 57 -14 21 13 4 31 -30 31 -24 0 -30 -4 -27
-17z"/>
<path d="M4140 2636 c-28 -35 11 -93 48 -70 35 22 22 84 -18 84 -10 0 -23 -7
-30 -14z"/>
<path d="M4495 2626 c-19 -29 -10 -54 23 -63 42 -10 68 40 36 71 -22 22 -41
20 -59 -8z"/>
<path d="M4990 2630 c0 -17 5 -21 28 -18 16 2 27 9 27 18 0 9 -11 16 -27 18
-23 3 -28 -1 -28 -18z"/>
<path d="M1970 3918 c0 -9 5 -20 10 -23 13 -8 13 5 0 25 -8 13 -10 13 -10 -2z"/>
<path d="M2047 3684 c-4 -4 -7 -14 -7 -23 0 -11 3 -12 11 -4 6 6 10 16 7 23
-2 6 -7 8 -11 4z"/>
<path d="M1906 3587 c3 -10 9 -15 12 -12 3 3 0 11 -7 18 -10 9 -11 8 -5 -6z"/>
<path d="M2070 3590 c0 -5 4 -10 9 -10 6 0 13 5 16 10 3 6 -1 10 -9 10 -9 0
-16 -4 -16 -10z"/>
<path d="M7148 3543 c7 -3 16 -2 19 1 4 3 -2 6 -13 5 -11 0 -14 -3 -6 -6z"/>
<path d="M2183 3364 c-3 -8 -1 -20 4 -25 7 -7 11 -2 11 15 0 29 -6 33 -15 10z"/>
<path d="M2015 3340 c3 -5 8 -10 11 -10 2 0 4 5 4 10 0 6 -5 10 -11 10 -5 0
-7 -4 -4 -10z"/>
<path d="M2210 3320 c0 -5 5 -10 11 -10 5 0 7 5 4 10 -3 6 -8 10 -11 10 -2 0
-4 -4 -4 -10z"/>
<path d="M7070 3265 c0 -8 4 -15 10 -15 5 0 7 7 4 15 -4 8 -8 15 -10 15 -2 0
-4 -7 -4 -15z"/>
<path d="M2130 3255 c0 -8 2 -15 4 -15 2 0 6 7 10 15 3 8 1 15 -4 15 -6 0 -10
-7 -10 -15z"/>
<path d="M2149 3213 c-4 -21 -2 -30 5 -25 6 4 14 7 18 7 15 0 20 15 5 15 -8 0
-17 8 -19 18 -3 10 -6 4 -9 -15z"/>
<path d="M2183 3223 c9 -2 25 -2 35 0 9 3 1 5 -18 5 -19 0 -27 -2 -17 -5z"/>
<path d="M7056 3213 c-6 -14 -5 -15 5 -6 7 7 10 15 7 18 -3 3 -9 -2 -12 -12z"/>
<path d="M6937 3109 c7 -7 15 -10 18 -7 3 3 -2 9 -12 12 -14 6 -15 5 -6 -5z"/>
<path d="M6967 3083 c-12 -12 -7 -22 8 -17 8 4 15 10 15 15 0 11 -14 12 -23 2z"/>
<path d="M6930 3075 c0 -5 5 -17 10 -25 5 -8 10 -10 10 -5 0 6 -5 17 -10 25
-5 8 -10 11 -10 5z"/>
<path d="M6822 2860 c0 -14 2 -19 5 -12 2 6 2 18 0 25 -3 6 -5 1 -5 -13z"/>
</g>
</svg>
